<svg width="70" height="97" viewBox="0 0 70 97" fill="none" xmlns="http://www.w3.org/2000/svg">
<path d="M16.5306 43.2492H22.5696H32.5299C43.2777 43.2492 52.0561 51.8984 52.0561 62.4879C52.0561 73.0775 43.2777 81.7266 32.5299 81.7266H22.1074H17.3332H9.4931C7.16192 81.7266 5.25401 79.8468 5.25401 77.5499C5.25401 75.2531 7.16192 73.3733 9.4931 73.3733H17.1586H22.1061H32.5286C38.5978 73.3733 43.5779 68.4652 43.5779 62.4867C43.5779 56.5069 38.5965 51.6001 32.5286 51.6001H22.5683H16.704H5.37459C3.0434 51.6001 1.1355 49.7203 1.1355 47.4234C1.1355 45.1266 3.0434 43.2468 5.37459 43.2468H16.5294L16.5306 43.2492Z" fill="white"/>
<path fill-rule="evenodd" clip-rule="evenodd" d="M10.7817 58.2667H32.4997C34.8246 58.2667 36.7262 60.1403 36.7262 62.431C36.7262 64.7216 34.8246 66.5953 32.4997 66.5953H10.7817C8.4568 66.5953 6.55518 64.7216 6.55518 62.431C6.55518 60.1403 8.4568 58.2667 10.7817 58.2667Z" fill="white"/>
<path d="M26.9757 28.8135H35.5795C44.9833 28.8135 53.5281 32.6003 59.7215 38.7026C65.9138 44.8036 69.7585 53.2238 69.7585 62.4892C69.7585 71.7546 65.915 80.1736 59.7215 86.2758C53.5293 92.3769 44.9833 96.165 35.5795 96.165H10.0746H5.11579H4.23909C1.9079 96.165 0 94.2851 0 91.9883C0 89.6914 1.9079 87.8116 4.23909 87.8116H5.11579H10.0746H35.5795C42.6434 87.8116 49.0667 84.9616 53.7278 80.3703C58.3877 75.7791 61.2803 69.4491 61.2803 62.4892C61.2803 55.5306 58.3877 49.2006 53.7278 44.6081C49.0679 40.0169 42.6434 37.1668 35.5795 37.1668H26.9757H18.544H18.5226V25.5637V13.2577V4.1643C18.5226 1.87362 20.4242 0 22.7492 0C25.0741 0 26.9757 1.87362 26.9757 4.1643V13.2577V25.5637V28.8135Z" fill="white"/>
<path fill-rule="evenodd" clip-rule="evenodd" d="M7.19576 0.730103C9.52066 0.730103 11.4223 2.60373 11.4223 4.8944V32.9988C11.4223 35.2894 9.52066 37.1631 7.19576 37.1631C4.87085 37.1631 2.96924 35.2894 2.96924 32.9988V4.8944C2.96924 2.60373 4.87085 0.730103 7.19576 0.730103Z" fill="white"/>
</svg>
