<svg width="20" height="20" viewBox="0 0 20 20" fill="none" xmlns="http://www.w3.org/2000/svg">
<path d="M13.9325 1.70895C13.9385 1.76685 13.9456 1.84788 13.9508 1.94691C13.9612 2.14388 13.9646 2.41772 13.9358 2.72581C13.8803 3.31905 13.6951 4.15095 13.0897 4.75636C12.4843 5.36176 11.6524 5.5469 11.0592 5.6024C10.7511 5.63122 10.4773 5.62783 10.2803 5.61742C10.1813 5.61219 10.1002 5.6051 10.0423 5.59909L9.94236 5.58711C9.66859 5.54732 9.4527 5.33179 9.41291 5.05802L9.40087 4.95764C9.39486 4.89973 9.38777 4.81871 9.38254 4.71968C9.37213 4.52271 9.36874 4.24886 9.39756 3.94078C9.45306 3.34754 9.6382 2.51563 10.2436 1.91023C10.849 1.30482 11.6809 1.11969 12.2742 1.06418C12.5822 1.03536 12.8561 1.03875 13.0531 1.04916C13.1521 1.0544 13.2331 1.06148 13.291 1.06749L13.391 1.07947C13.6647 1.11927 13.8806 1.3348 13.9204 1.60857L13.9325 1.70895Z" fill="#020617"/>
<path d="M3.98219 7.57561C4.80079 6.57467 5.9452 6.04163 7.2004 6.04163C8.03658 6.04163 8.77175 6.37667 9.32515 6.73685C9.91208 7.11885 10.5041 7.11885 11.091 6.73685C11.6444 6.37667 12.3796 6.04163 13.2158 6.04163C14.7469 6.04163 16.0969 6.83298 16.9045 8.26717C16.9926 8.42359 17.0091 8.61033 16.95 8.77981C16.8908 8.94929 16.7616 9.08515 16.5953 9.15277C15.7277 9.50557 15.1298 10.3374 15.1298 11.2953C15.1298 12.3406 15.8429 13.2366 16.8388 13.5219C17.0026 13.5688 17.1401 13.6805 17.2195 13.8312C17.299 13.9819 17.3135 14.1585 17.2597 14.3201C16.916 15.3528 16.3958 16.3323 15.7778 17.124C15.1667 17.9067 14.4222 18.5534 13.6113 18.8441C12.6513 19.1881 11.7484 18.689 11.1788 18.2808C10.9871 18.1434 10.7891 18.0194 10.6043 17.9318C10.4111 17.8402 10.2796 17.8113 10.2081 17.8113C10.1366 17.8113 10.0051 17.8402 9.81184 17.9318C9.6271 18.0194 9.42904 18.1434 9.23738 18.2808C8.6678 18.689 7.76491 19.1881 6.80492 18.8441C5.6755 18.4393 4.65828 17.3385 3.93695 16.0718C3.205 14.7864 2.70837 13.2118 2.70837 11.7161C2.70837 9.98219 3.17007 8.56862 3.98219 7.57561Z" fill="#020617"/>
</svg>
