<svg width="12" height="12" viewBox="0 0 12 12" fill="none" xmlns="http://www.w3.org/2000/svg">
<path d="M3.375 7.42847C3.37496 6.78136 3.37492 6.18791 3.43995 5.70419C3.5116 5.17127 3.68017 4.60752 4.14385 4.14385C4.60752 3.68017 5.17127 3.5116 5.70419 3.43995C6.18791 3.37492 6.78136 3.37496 7.42846 3.375L8.54657 3.375C8.69456 3.375 8.76856 3.375 8.81306 3.32709C8.85757 3.27919 8.85226 3.2071 8.84163 3.06292C8.83241 2.93773 8.82062 2.81946 8.80557 2.70772C8.74092 2.22795 8.6116 1.82925 8.3359 1.49332C8.23721 1.37306 8.12694 1.26279 8.00669 1.1641C7.65221 0.873192 7.22786 0.745273 6.71238 0.684341C6.21027 0.62499 5.57559 0.624994 4.77446 0.625H4.72554C3.92442 0.624994 3.28973 0.62499 2.78763 0.68434C2.27214 0.745272 1.84779 0.873192 1.49332 1.1641C1.37306 1.26279 1.26279 1.37306 1.1641 1.49332C0.873192 1.84779 0.745273 2.27214 0.684341 2.78763C0.62499 3.28973 0.624994 3.92441 0.625 4.72554V4.77446C0.624994 5.57558 0.62499 6.21027 0.68434 6.71237C0.745272 7.22786 0.873191 7.65221 1.1641 8.00668C1.26279 8.12694 1.37306 8.23721 1.49332 8.3359C1.82925 8.61159 2.22795 8.74091 2.70772 8.80557C2.81946 8.82062 2.93773 8.83241 3.06292 8.84163C3.2071 8.85226 3.27919 8.85757 3.32709 8.81306C3.375 8.76856 3.375 8.69456 3.375 8.54657V7.42847Z" fill="#5F5F5F"/>
<path fill-rule="evenodd" clip-rule="evenodd" d="M6.27672 4.54554C6.31142 4.81021 6.125 5.0529 5.86033 5.0876C5.54235 5.1293 5.38432 5.19913 5.28066 5.2844C5.18919 5.35965 5.12482 5.4578 5.08216 5.67021C5.02959 5.93192 4.77482 6.10146 4.51312 6.04889C4.25141 5.99633 4.08187 5.74156 4.13444 5.47985C4.20835 5.11187 4.35952 4.79047 4.66655 4.53789C4.96771 4.29014 5.32959 4.18227 5.73465 4.12916C5.99932 4.09445 6.24201 4.28087 6.27672 4.54554ZM9.22312 4.54554C9.25782 4.28087 9.50052 4.09445 9.76518 4.12916C10.1702 4.18227 10.5321 4.29014 10.8333 4.53789C11.1403 4.79047 11.2915 5.11187 11.3654 5.47985C11.418 5.74156 11.2484 5.99633 10.9867 6.04889C10.725 6.10146 10.4702 5.93192 10.4177 5.67021C10.375 5.4578 10.3106 5.35965 10.2192 5.2844C10.1155 5.19913 9.95749 5.1293 9.6395 5.0876C9.37483 5.0529 9.18841 4.81021 9.22312 4.54554ZM6.5416 4.60838C6.5416 4.34145 6.75799 4.12505 7.02493 4.12505H8.47491C8.74184 4.12505 8.95823 4.34145 8.95823 4.60838C8.95823 4.87531 8.74184 5.09171 8.47491 5.09171H7.02493C6.75799 5.09171 6.5416 4.87531 6.5416 4.60838ZM4.6083 6.54169C4.87523 6.54169 5.09162 6.75808 5.09162 7.02501V8.47499C5.09162 8.74192 4.87523 8.95832 4.6083 8.95832C4.34136 8.95832 4.12497 8.74192 4.12497 8.47499V7.02501C4.12497 6.75808 4.34136 6.54169 4.6083 6.54169ZM10.8915 6.54169C11.1585 6.54169 11.3749 6.75808 11.3749 7.02501V8.47499C11.3749 8.74192 11.1585 8.95832 10.8915 8.95832C10.6246 8.95832 10.4082 8.74192 10.4082 8.47499V7.02501C10.4082 6.75808 10.6246 6.54169 10.8915 6.54169ZM4.51312 9.45111C4.77482 9.39854 5.02959 9.56808 5.08216 9.82979C5.12482 10.0422 5.18919 10.1403 5.28066 10.2156C5.38432 10.3009 5.54235 10.3707 5.86033 10.4124C6.125 10.4471 6.31142 10.6898 6.27672 10.9545C6.24201 11.2191 5.99932 11.4055 5.73465 11.3708C5.32959 11.3177 4.96771 11.2099 4.66655 10.9621C4.35952 10.7095 4.20835 10.3881 4.13444 10.0201C4.08187 9.75844 4.25141 9.50367 4.51312 9.45111ZM10.9867 9.45111C11.2484 9.50367 11.418 9.75844 11.3654 10.0201C11.2915 10.3881 11.1403 10.7095 10.8333 10.9621C10.5321 11.2099 10.1702 11.3177 9.76518 11.3708C9.50052 11.4055 9.25782 11.2191 9.22312 10.9545C9.18841 10.6898 9.37483 10.4471 9.6395 10.4124C9.95748 10.3707 10.1155 10.3009 10.2192 10.2156C10.3106 10.1403 10.375 10.0422 10.4177 9.82979C10.4702 9.56808 10.725 9.39854 10.9867 9.45111ZM6.5416 10.8916C6.5416 10.6247 6.75799 10.4083 7.02493 10.4083H8.47491C8.74184 10.4083 8.95823 10.6247 8.95823 10.8916C8.95823 11.1586 8.74184 11.3749 8.47491 11.3749H7.02493C6.75799 11.3749 6.5416 11.1586 6.5416 10.8916Z" fill="#5F5F5F"/>
</svg>
