<svg width="38" height="37" viewBox="0 0 38 37" fill="none" xmlns="http://www.w3.org/2000/svg">
<g clip-path="url(#clip0_8794_22274)">
<path d="M19.4985 7.87768C19.8117 7.358 19.8462 6.77588 19.5309 6.39203C19.3203 6.13559 18.9794 6.00374 18.5832 6.02549C18.187 6.04724 17.7679 6.22082 17.4182 6.50803C17.0685 6.79523 16.8168 7.17255 16.7185 7.55698C16.6202 7.9414 16.6832 8.30143 16.8939 8.55788C17.2135 8.94704 17.8006 9.02308 18.3781 8.80675C19.5583 11.3072 20.0242 13.5067 17.3154 16.2831C17.3154 16.2831 20.534 18.5661 24.2867 15.4839C28.0395 12.4017 26.0276 9.1766 26.0276 9.1766C23.0768 11.7914 20.5146 9.19611 19.4985 7.87768Z" fill="#F19534"/>
<path d="M8.67123 16.7701C8.10058 16.9763 7.52287 16.897 7.20761 16.5131C6.99698 16.2567 6.93391 15.8966 7.03225 15.5122C7.13059 15.1278 7.38229 14.7505 7.73199 14.4632C8.08168 14.176 8.50073 14.0025 8.89693 13.9807C9.29313 13.959 9.63404 14.0908 9.84467 14.3473C10.1643 14.7364 10.1248 15.3271 9.80032 15.8516C12.0237 17.4952 14.0907 18.3797 17.3406 16.2622C17.3406 16.2622 18.9545 19.8631 15.2018 22.9453C11.4491 26.0274 8.67935 23.4269 8.67935 23.4269C11.8148 21.0407 9.76703 18.023 8.67123 16.7701Z" fill="#F19534"/>
<path d="M24.236 15.525C24.2523 15.5116 24.2697 15.4995 24.286 15.4861C25.3201 14.6367 25.915 13.7768 26.2353 12.9777L24.236 15.525Z" fill="url(#paint0_linear_8794_22274)"/>
<path d="M23.4357 3.54238C22.7835 3.97796 22.5534 4.87204 22.9218 5.53475C23.1522 5.94825 23.5604 6.17569 23.9936 6.18245L24.6443 7.86101C24.6443 7.86101 26.5442 11.5295 23.6925 14.9037C21.4131 17.601 17.481 14.7964 16.3314 13.8767C16.6894 13.2713 16.7262 12.596 16.3586 12.1484C15.8426 11.5202 14.7311 11.5812 13.8744 12.2848C13.0178 12.9884 12.7419 14.0669 13.2579 14.6951C13.6277 15.1454 14.3059 15.24 14.9763 14.9964C15.6918 16.248 17.7309 20.4072 14.5341 22.4233C11.2885 24.4685 7.02083 21.8905 5.9122 21.1463C6.09083 20.6437 5.98063 20.107 5.57765 19.7641C4.99808 19.2726 4.03469 19.3699 3.42525 19.9794C2.81582 20.5889 2.79245 21.48 3.37094 21.9702C3.79172 22.3274 4.41689 22.3722 4.96064 22.1369L15.8855 30.7415C15.8855 30.7415 18.8526 30.2552 24.6936 25.4579C30.5347 20.6606 31.5884 17.8446 31.5884 17.8446L25.2536 5.42339C25.5089 4.97351 25.5372 4.40978 25.2846 3.95447C24.9169 3.28894 24.0898 3.10532 23.4357 3.54238Z" fill="url(#paint1_linear_8794_22274)"/>
<path d="M22.5705 22.7251C23.5448 21.9249 23.7676 20.5858 23.0681 19.7342C22.3686 18.8825 21.0118 18.8408 20.0375 19.641C19.0632 20.4412 18.8405 21.7802 19.5399 22.6319C20.2394 23.4835 21.5962 23.5253 22.5705 22.7251Z" fill="#26A69A"/>
<path d="M20.3507 20.0224C20.4653 20.0217 20.6109 20.0734 20.6441 20.3797C20.6773 20.6861 20.196 21.5328 20.1122 21.6929C20.0294 21.8543 19.9235 21.899 19.8652 21.9091C19.5834 21.9538 19.4485 21.6419 19.4452 21.3867C19.4358 20.8361 19.7129 20.0325 20.3507 20.0224Z" fill="#69F0AE"/>
<path d="M21.6459 21.8659C21.5044 22.0999 21.0262 22.8508 21.4501 22.9274C21.7002 22.9734 22.0152 22.8215 22.2626 22.6316C22.51 22.4417 22.7015 22.1911 22.8486 21.9345C23.5465 20.7163 22.7968 19.6373 22.5361 19.7224C22.2678 19.8093 22.2992 20.1282 22.2662 20.3022C22.1621 20.8268 21.9513 21.3581 21.6459 21.8659Z" fill="#00796B"/>
<path d="M29.9836 11.941C29.3247 10.5627 28.0386 11.1386 28.0386 11.1386C28.0386 11.1386 27.2871 11.6046 28.0275 13.1561C28.7669 14.7062 29.5184 14.2402 29.5184 14.2402C29.5184 14.2402 30.6406 13.3208 29.9836 11.941Z" fill="#26A69A"/>
<path d="M28.6614 11.2836C29.1063 11.323 29.1081 11.9198 28.8307 12.5458C28.749 12.7307 28.5425 12.8559 28.4673 12.8198C28.2538 12.7149 28.1304 12.4982 28.0998 12.2542C28.0045 11.5251 28.4361 11.264 28.6614 11.2836Z" fill="#69F0AE"/>
<path d="M10.392 28.0898C9.16728 27.1784 9.98285 26.0259 9.98285 26.0259C9.98285 26.0259 10.586 25.3793 11.964 26.4071C13.3409 27.4337 12.7377 28.0803 12.7377 28.0803C12.7377 28.0803 11.6159 29.0039 10.392 28.0898Z" fill="#26A69A"/>
<path d="M10.6241 26.1502C10.9759 26.0837 11.0192 26.3395 10.9356 26.6106C10.8418 26.9211 10.8079 27.2048 10.7602 27.5086C10.7527 27.5548 10.7437 27.6067 10.7057 27.649C10.6333 27.7307 10.515 27.7233 10.4387 27.6859C10.2234 27.5825 10.0764 27.374 10.0658 27.1248C10.0344 26.4144 10.4874 26.1758 10.6241 26.1502Z" fill="#69F0AE"/>
<path d="M27.6177 15.7433C27.9215 16.3679 27.6488 17.199 27.0063 17.6022C26.3638 18.0053 25.9187 17.6258 25.6149 17.0012C25.3112 16.3765 25.2636 15.7462 25.9042 15.3446C26.5467 14.9414 27.3151 15.12 27.6177 15.7433ZM15.0192 26.0905C15.5729 26.5099 16.4413 26.4039 16.9615 25.852C17.4818 25.3001 17.1961 24.7897 16.6424 24.3704C16.0887 23.951 15.4797 23.7818 14.9612 24.3322C14.4427 24.8826 14.4685 25.671 15.0192 26.0905Z" fill="#F44336"/>
<path d="M15.5757 25.0515C15.5329 25.269 15.3906 25.753 15.139 25.6793C14.7956 25.5788 14.7275 25.0565 14.88 24.7399C15.0325 24.4234 15.3077 24.3486 15.4262 24.4226C15.5747 24.5186 15.6127 24.8566 15.5757 25.0515ZM26.1551 16.9209C25.9594 17.0482 25.5675 16.6117 25.7569 15.86C25.8473 15.5011 26.3427 15.4323 26.483 15.773C26.6161 16.0974 26.5134 16.6888 26.1551 16.9209Z" fill="#FFA8A4"/>
<path d="M30.482 15.8486C29.7244 17.1381 28.1074 20.2432 23.5125 24.0171C18.9176 27.7909 15.5574 28.7735 14.1453 29.2661C14.1453 29.2661 13.8813 29.7387 14.0122 29.8981L15.0169 31.1213C15.1511 31.2847 15.3921 31.3381 15.6528 31.2641C16.8015 30.9345 20.0954 29.6793 24.915 25.721C29.7345 21.7627 31.606 18.7755 32.1525 17.7127C32.2132 17.5946 32.2436 17.4724 32.2407 17.3581C32.2378 17.2439 32.2017 17.1416 32.1361 17.0612L31.1314 15.8379C30.9968 15.6815 30.482 15.8486 30.482 15.8486Z" fill="url(#paint2_linear_8794_22274)"/>
<path d="M19.2636 27.872C19.8308 27.5286 20.0109 27.434 20.1467 27.6695C20.4109 28.1352 19.1776 28.9858 18.3868 29.4151C16.7522 30.3016 16.2304 30.2498 16.0199 29.9934C15.8268 29.7584 16.0502 29.5282 16.5113 29.3141C17.063 29.0589 17.9294 28.681 19.2636 27.872Z" fill="url(#paint3_linear_8794_22274)"/>
<path d="M30.7029 16.1167C30.7029 16.1167 28.7251 19.8273 23.5578 24.0713C18.3905 28.3152 14.3662 29.5342 14.3662 29.5342" stroke="#F19534" stroke-width="0.318681" stroke-miterlimit="10" stroke-linecap="round"/>
<path d="M10.2922 21.6129C10.8412 20.3168 10.6163 18.9869 9.47908 17.5099C9.3758 17.3768 9.39488 17.2966 9.48432 17.2098C9.62846 17.0714 9.73781 17.1529 9.79599 17.2274C11.0288 18.8171 11.5564 20.0097 10.9372 21.4345C10.9065 21.5042 10.6691 21.9795 10.4148 21.9949C10.1133 22.0156 10.2568 21.6954 10.2922 21.6129ZM7.462 16.3686C7.23376 16.1535 6.95421 15.658 7.65307 14.7549C7.85791 14.491 8.08785 14.4534 8.17465 14.5C8.39109 14.6158 8.23772 14.8574 8.16027 14.9589C7.62791 15.6585 7.79385 15.927 7.78455 16.1927C7.77526 16.4583 7.53286 16.4328 7.462 16.3686ZM19.3126 13.6706C19.718 12.3879 19.7754 11.2799 18.9711 9.52504C18.9007 9.36927 18.9231 9.29309 19.0195 9.21839C19.1756 9.09461 19.269 9.19359 19.3116 9.2787C20.2525 11.0815 20.3063 11.7712 19.949 13.526C19.9084 13.7239 19.6863 14.0554 19.4356 14.09C19.21 14.1218 19.2628 13.8315 19.3126 13.6706ZM17.1543 8.42825C16.9261 8.21313 16.6465 7.71766 17.3454 6.81451C17.5502 6.55063 17.7802 6.51302 17.867 6.55962C18.0834 6.67544 17.93 6.91706 17.8526 7.01848C17.3202 7.71816 17.4862 7.98666 17.4769 8.2523C17.4694 8.51645 17.2252 8.49238 17.1543 8.42825Z" fill="url(#paint4_linear_8794_22274)"/>
<path d="M13.5338 23.8544C10.8544 24.883 8.73502 23.5654 7.75414 23.0432C7.6245 22.974 7.56442 22.8565 7.68132 22.7071C7.79822 22.5577 7.93898 22.5556 8.07043 22.6233C8.78185 23.0021 11.2884 24.1595 13.6547 23.1301C13.8269 23.0554 14.1239 22.9739 14.1425 23.2366C14.153 23.4082 13.9653 23.6891 13.5338 23.8544ZM4.98295 20.4261C4.75499 20.3553 4.59333 20.2435 3.90239 20.5285C3.72802 20.6005 3.5582 20.5821 3.50897 20.4446C3.45973 20.3071 3.53917 20.1084 3.77108 19.9624C4.5248 19.4879 5.09112 19.8747 5.26518 20.0275C5.43198 20.1752 5.21273 20.4954 4.98295 20.4261ZM25.3571 14.1438C26.8868 11.7153 26.0063 9.38034 25.6847 8.31667C25.642 8.17604 25.5384 8.09428 25.3692 8.17992C25.1999 8.26556 25.1704 8.40321 25.2113 8.54532C25.4446 9.31679 26.0929 12.0005 24.6232 14.1217C24.5164 14.276 24.3787 14.5515 24.6328 14.6208C24.7991 14.6645 25.1112 14.5349 25.3571 14.1438ZM23.6561 5.08969C23.631 4.85231 23.5526 4.672 23.9665 4.04962C24.0711 3.89258 24.086 3.72241 23.9607 3.64739C23.8354 3.57238 23.625 3.61169 23.4367 3.8108C22.8248 4.45794 23.0941 5.08862 23.2102 5.28907C23.3227 5.48139 23.6812 5.32706 23.6561 5.08969ZM13.9778 14.1328C13.9519 13.8761 13.9592 13.4898 14.5127 12.875C14.7249 12.6385 14.7323 12.5034 14.6145 12.4044C14.3714 12.197 13.9727 12.5535 13.7815 12.7749C13.1437 13.5123 13.3759 14.1312 13.5022 14.3477C13.6209 14.555 14.0055 14.3881 13.9778 14.1328Z" fill="url(#paint5_linear_8794_22274)"/>
</g>
<defs>
<linearGradient id="paint0_linear_8794_22274" x1="25.0136" y1="13.981" x2="25.4587" y2="14.5229" gradientUnits="userSpaceOnUse">
<stop stop-color="#E99EC7"/>
<stop offset="1" stop-color="#9013FE"/>
</linearGradient>
<linearGradient id="paint1_linear_8794_22274" x1="13.3729" y1="11.7977" x2="24.633" y2="25.5077" gradientUnits="userSpaceOnUse">
<stop stop-color="#E99EC7"/>
<stop offset="1" stop-color="#9013FE"/>
</linearGradient>
<linearGradient id="paint2_linear_8794_22274" x1="22.3154" y1="22.5559" x2="24.915" y2="25.721" gradientUnits="userSpaceOnUse">
<stop stop-color="#E99EC7"/>
<stop offset="1" stop-color="#9013FE"/>
</linearGradient>
<linearGradient id="paint3_linear_8794_22274" x1="17.6452" y1="28.2934" x2="18.5876" y2="29.4408" gradientUnits="userSpaceOnUse">
<stop stop-color="#E99EC7"/>
<stop offset="1" stop-color="#9013FE"/>
</linearGradient>
<linearGradient id="paint4_linear_8794_22274" x1="11.7186" y1="11.3856" x2="16.4299" y2="17.122" gradientUnits="userSpaceOnUse">
<stop stop-color="#E99EC7"/>
<stop offset="1" stop-color="#9013FE"/>
</linearGradient>
<linearGradient id="paint5_linear_8794_22274" x1="13.5997" y1="11.8815" x2="19.4914" y2="19.0551" gradientUnits="userSpaceOnUse">
<stop stop-color="#E99EC7"/>
<stop offset="1" stop-color="#9013FE"/>
</linearGradient>
<clipPath id="clip0_8794_22274">
<rect width="30" height="22" fill="white" transform="translate(0 19.041) rotate(-39.3966)"/>
</clipPath>
</defs>
</svg>
