<svg width="16" height="16" viewBox="0 0 16 16" fill="none" xmlns="http://www.w3.org/2000/svg">
<path d="M13 3.66699L12.7321 8.00449M3 3.66699L3.40307 10.3502C3.5063 12.0618 3.55792 12.9176 3.98579 13.533C4.19733 13.8373 4.46987 14.0941 4.78604 14.2871C5.23356 14.5604 5.78738 14.6424 6.66667 14.667" stroke="#141B34" stroke-width="1.5" stroke-linecap="round"/>
<path d="M13.3334 10L8.66669 14.6664M13.3334 14.6667L8.66669 10.0003" stroke="#191919" stroke-width="1.5" stroke-linecap="round" stroke-linejoin="round"/>
<path d="M2 3.66634L14 3.66634M10.7038 3.66634L10.2487 2.72749C9.94638 2.10385 9.79522 1.79202 9.53448 1.59755C9.47664 1.55441 9.4154 1.51604 9.35135 1.48281C9.06261 1.33301 8.71608 1.33301 8.02302 1.33301C7.31255 1.33301 6.95732 1.33301 6.66379 1.48909C6.59873 1.52368 6.53666 1.5636 6.4782 1.60845C6.21443 1.81081 6.06709 2.13404 5.7724 2.78051L5.36862 3.66634" stroke="#191919" stroke-width="1.5" stroke-linecap="round"/>
</svg>
