<svg width="16" height="16" viewBox="0 0 16 16" fill="none" xmlns="http://www.w3.org/2000/svg">
<path d="M3.45337 10.1978C2.61499 10.6892 0.416804 11.6926 1.75565 12.9482C2.40966 13.5615 3.13806 14.0002 4.05384 14.0002H9.27948C10.1953 14.0002 10.9237 13.5615 11.5777 12.9482C12.9165 11.6926 10.7183 10.6892 9.87995 10.1978C7.91396 9.04541 5.41937 9.04541 3.45337 10.1978Z" stroke="white" stroke-width="1.5" stroke-linecap="round" stroke-linejoin="round"/>
<path d="M9.33333 4.66667C9.33333 6.13943 8.13943 7.33333 6.66667 7.33333C5.19391 7.33333 4 6.13943 4 4.66667C4 3.19391 5.19391 2 6.66667 2C8.13943 2 9.33333 3.19391 9.33333 4.66667Z" stroke="white" stroke-width="1.5"/>
<path d="M13 2.6665V5.99984M14.6667 4.33317L11.3333 4.33317" stroke="white" stroke-width="1.5" stroke-linecap="round" stroke-linejoin="round"/>
</svg>
