<svg width="16" height="16" viewBox="0 0 16 16" fill="none" xmlns="http://www.w3.org/2000/svg">
<path d="M1.34392 9.70098C1.38789 11.7232 1.40987 12.7343 2.16405 13.4831C2.91823 14.2318 3.96787 14.2578 6.06713 14.3097C7.35952 14.3416 8.64044 14.3416 9.93284 14.3097C12.0321 14.2578 13.0817 14.2318 13.8359 13.4831C14.5901 12.7343 14.6121 11.7232 14.656 9.70097C14.6776 8.71026 14.6663 7.72927 14.6223 6.7284C14.5949 6.10675 14.5812 5.79593 14.4236 5.52022C14.2659 5.24451 13.9942 5.06656 13.4507 4.71066L10.9434 3.0689C9.51613 2.1343 8.80248 1.66699 7.99998 1.66699C7.19747 1.66699 6.48383 2.13429 5.05653 3.0689L2.54929 4.71066C2.00578 5.06656 1.73402 5.24451 1.57637 5.52022C1.41872 5.79593 1.40504 6.10676 1.37769 6.7284C1.33364 7.72928 1.32238 8.71026 1.34392 9.70098Z" stroke="#191919" stroke-width="1.5" stroke-linejoin="round"/>
<path d="M1.33331 6.33301L4.17689 8.39276C4.49035 8.61981 4.77723 8.82761 5.04265 9.01616C5.76005 9.52577 6.27772 9.66634 7.15746 9.66634H8.8425C9.72224 9.66634 10.2399 9.52577 10.9573 9.01616C11.2227 8.82761 11.5096 8.61982 11.8231 8.39276L14.6666 6.33301" stroke="#141B34" stroke-width="1.5" stroke-linejoin="round"/>
</svg>
