<svg width="16" height="16" viewBox="0 0 16 16" fill="none" xmlns="http://www.w3.org/2000/svg">
<path d="M12 4.66699C12.5163 4.77405 12.9059 4.95272 13.219 5.25092C14 5.99487 14 7.19224 14 9.58698C14 11.9817 14 13.1791 13.219 13.923C12.4379 14.667 11.1808 14.667 8.66667 14.667H7.33333C4.81918 14.667 3.5621 14.667 2.78105 13.923C2 13.1791 2 11.9817 2 9.58698C2 7.19224 2 5.99487 2.78105 5.25092C3.09412 4.95272 3.48367 4.77405 4 4.66699" stroke="#191919" stroke-width="1.5" stroke-linecap="round"/>
<path d="M8.01686 1.33336L8 9.33301M8.01686 1.33336C7.90844 1.32887 7.79937 1.36761 7.70222 1.44962C7.09791 1.95972 6 3.28558 6 3.28558M8.01686 1.33336C8.11408 1.33738 8.21077 1.37618 8.29788 1.44973C8.90207 1.95992 10 3.28558 10 3.28558" stroke="#191919" stroke-width="1.5" stroke-linecap="round" stroke-linejoin="round"/>
</svg>
