<svg width="12" height="12" viewBox="0 0 12 12" fill="none" xmlns="http://www.w3.org/2000/svg">
<path d="M5.15199 3.61069C5.47299 2.81069 5.63349 2.41019 5.89449 2.35469C5.96306 2.3401 6.03393 2.3401 6.10249 2.35469C6.36299 2.40969 6.52399 2.81019 6.84499 3.61069C7.02749 4.06569 7.11849 4.29319 7.28949 4.44819C7.33783 4.49152 7.38949 4.52985 7.44449 4.56319C7.64199 4.68269 7.88849 4.70469 8.38149 4.74869C9.21599 4.82369 9.63299 4.86069 9.76049 5.09869C9.78687 5.14802 9.80479 5.20142 9.81349 5.25669C9.85599 5.52319 9.54899 5.80169 8.93549 6.36019L8.76549 6.51519C8.47849 6.77619 8.33549 6.90669 8.25249 7.06919C8.20263 7.16689 8.16919 7.27213 8.15349 7.38069C8.12749 7.56119 8.16949 7.75069 8.25349 8.12919L8.28349 8.26419C8.43399 8.94319 8.50949 9.28268 8.41549 9.44918C8.37394 9.52294 8.31434 9.58493 8.24228 9.62936C8.17021 9.67379 8.08805 9.69919 8.00349 9.70319C7.81249 9.71269 7.54299 9.49319 7.00349 9.05369C6.64849 8.76419 6.47099 8.61969 6.27399 8.56319C6.09395 8.51159 5.90304 8.51159 5.72299 8.56319C5.52599 8.61969 5.34799 8.76419 4.99299 9.05369C4.45399 9.49269 4.18449 9.71269 3.99299 9.70369C3.90847 9.69955 3.82638 9.67404 3.75441 9.62952C3.68244 9.58501 3.62294 9.52296 3.58149 9.44918C3.48749 9.28268 3.56299 8.94319 3.71349 8.26419L3.74349 8.12919C3.82749 7.75069 3.86949 7.56119 3.84349 7.38069C3.8278 7.27213 3.79435 7.16689 3.74449 7.06919C3.66149 6.90669 3.51849 6.77619 3.23149 6.51519L3.06149 6.36019C2.44799 5.80219 2.14149 5.52319 2.18349 5.25669C2.1922 5.20142 2.21011 5.14802 2.23649 5.09869C2.36399 4.86069 2.78149 4.82369 3.61549 4.74869C4.10849 4.70469 4.35499 4.68269 4.55199 4.56369C4.60727 4.53028 4.65918 4.4916 4.70699 4.44819C4.87849 4.29319 4.96949 4.06569 5.15199 3.61069Z" fill="url(#paint0_linear_9081_37268)" stroke="url(#paint1_linear_9081_37268)" stroke-width="2"/>
<defs>
<linearGradient id="paint0_linear_9081_37268" x1="5.99853" y1="2.34375" x2="5.99853" y2="9.70395" gradientUnits="userSpaceOnUse">
<stop stop-color="#E99EC7"/>
<stop offset="1" stop-color="#9013FE"/>
</linearGradient>
<linearGradient id="paint1_linear_9081_37268" x1="5.99853" y1="2.34375" x2="5.99853" y2="9.70395" gradientUnits="userSpaceOnUse">
<stop stop-color="#E99EC7"/>
<stop offset="1" stop-color="#9013FE"/>
</linearGradient>
</defs>
</svg>
