<svg width="16" height="16" viewBox="0 0 16 16" fill="none" xmlns="http://www.w3.org/2000/svg">
<path d="M3.11715 9.76623C5.23928 8.52237 7.92728 8.52237 10.0494 9.76623C10.1166 9.80562 10.2003 9.85208 10.2955 9.90494C10.7173 10.1391 11.3652 10.4988 11.8088 10.9262C12.0858 11.1931 12.3588 11.5536 12.4087 12.0025C12.4621 12.4835 12.2472 12.9274 11.8363 13.3127C11.1363 13.9692 10.291 14.5 9.1961 14.5H3.97046C2.87556 14.5 2.03029 13.9692 1.33023 13.3127C0.919349 12.9274 0.70445 12.4835 0.757865 12.0025C0.807713 11.5536 1.08075 11.1931 1.35774 10.9262C1.80133 10.4988 2.44928 10.1391 2.87104 9.90494C2.96625 9.85208 3.04995 9.80562 3.11715 9.76623Z" fill="#191919"/>
<path d="M3.41661 4.66667C3.41661 2.91777 4.83438 1.5 6.58328 1.5C8.33218 1.5 9.74994 2.91777 9.74994 4.66667C9.74994 6.41557 8.33218 7.83333 6.58328 7.83333C4.83438 7.83333 3.41661 6.41557 3.41661 4.66667Z" fill="#191919"/>
<path fill-rule="evenodd" clip-rule="evenodd" d="M12.9167 2C13.2849 2 13.5834 2.29848 13.5834 2.66667V3.66667H14.5834C14.9516 3.66667 15.25 3.96514 15.25 4.33333C15.25 4.70152 14.9516 5 14.5834 5H13.5834V6C13.5834 6.36819 13.2849 6.66667 12.9167 6.66667C12.5485 6.66667 12.25 6.36819 12.25 6V5H11.25C10.8819 5 10.5834 4.70152 10.5834 4.33333C10.5834 3.96514 10.8819 3.66667 11.25 3.66667L12.25 3.66667V2.66667C12.25 2.29848 12.5485 2 12.9167 2Z" fill="#191919"/>
</svg>
