<svg width="16" height="16" viewBox="0 0 16 16" fill="none" xmlns="http://www.w3.org/2000/svg">
<path d="M11.8706 9.89161C11.9482 9.93778 12.044 9.99182 12.1524 10.053C12.6276 10.3211 13.3459 10.7264 13.8381 11.2081C14.1458 11.5093 14.4383 11.9063 14.4914 12.3927C14.548 12.9099 14.3223 13.3953 13.8697 13.8265C13.0887 14.5706 12.1515 15.1668 10.9393 15.1668H5.06045C3.84825 15.1668 2.91106 14.5706 2.13009 13.8265C1.67741 13.3953 1.45177 12.9099 1.50831 12.3927C1.56147 11.9063 1.85391 11.5093 2.16169 11.2081C2.6538 10.7264 3.37214 10.3211 3.84735 10.053C3.95578 9.99182 4.05158 9.93778 4.12912 9.89161C6.49848 8.48079 9.50126 8.48079 11.8706 9.89161Z" fill="#141B34"/>
<path d="M4.49987 4.3335C4.49987 2.4005 6.06688 0.833496 7.99987 0.833496C9.93287 0.833496 11.4999 2.4005 11.4999 4.3335C11.4999 6.26649 9.93287 7.8335 7.99987 7.8335C6.06688 7.8335 4.49987 6.26649 4.49987 4.3335Z" fill="#141B34"/>
</svg>
