<svg width="25" height="24" viewBox="0 0 25 24" fill="none" xmlns="http://www.w3.org/2000/svg">
<path d="M7.50024 6.00049C6.2796 6.00415 5.60407 6.03335 5.04898 6.26634C4.27145 6.59269 3.63826 7.19552 3.26835 7.96158C2.96642 8.58687 2.91702 9.38799 2.8182 10.9902L2.66336 13.5009C2.41763 17.4853 2.29476 19.4775 3.46393 20.7388C4.63309 22 6.60277 22 10.5421 22L14.4584 22C18.3977 22 20.3674 22 21.5366 20.7388C22.7057 19.4775 22.5829 17.4853 22.3371 13.5009L22.1823 10.9902C22.0835 9.38799 22.0341 8.58687 21.7321 7.96158C21.3622 7.19552 20.729 6.59269 19.9515 6.26634C19.3964 6.03335 18.7209 6.00415 17.5002 6.00049" stroke="#141B34" stroke-width="1.5" stroke-linecap="round"/>
<path d="M17.5 7L16.6142 4.78543C16.232 3.82996 15.8994 2.7461 14.9166 2.25955C14.3924 2 13.7616 2 12.5 2C11.2384 2 10.6076 2 10.0834 2.25955C9.1006 2.7461 8.76801 3.82996 8.38583 4.78543L7.5 7" stroke="#141B34" stroke-width="1.5" stroke-linecap="round" stroke-linejoin="round"/>
<path d="M16 14C16 15.933 14.433 17.5 12.5 17.5C10.567 17.5 9 15.933 9 14C9 12.067 10.567 10.5 12.5 10.5C14.433 10.5 16 12.067 16 14Z" stroke="#141B34" stroke-width="1.5"/>
<path d="M12.4998 6H12.5088" stroke="#141B34" stroke-width="1.5" stroke-linecap="round" stroke-linejoin="round"/>
</svg>
