<svg width="17" height="16" viewBox="0 0 17 16" fill="none" xmlns="http://www.w3.org/2000/svg">
<path d="M8.53809 14.833C9.99839 14.833 11.1455 14.8333 12.041 14.7129C12.9588 14.5895 13.6876 14.3319 14.2598 13.7598C14.8319 13.1876 15.0895 12.4588 15.2129 11.541C15.3333 10.6455 15.333 9.49839 15.333 8.03809V7.96191C15.333 6.50162 15.3333 5.35455 15.2129 4.45898C15.0895 3.54121 14.8319 2.81237 14.2598 2.24023C13.6876 1.6681 12.9588 1.4105 12.041 1.28711C11.1454 1.16674 9.9984 1.16698 8.53809 1.16699H8.46191C7.0016 1.16698 5.85455 1.16674 4.95898 1.28711C4.04121 1.4105 3.31237 1.6681 2.74023 2.24023C2.1681 2.81237 1.9105 3.54121 1.78711 4.45898C1.66674 5.35455 1.66698 6.5016 1.66699 7.96191V8.03809C1.66698 9.4984 1.66674 10.6454 1.78711 11.541C1.9105 12.4588 2.1681 13.1876 2.74023 13.7598C3.31237 14.3319 4.04121 14.5895 4.95898 14.7129C5.85455 14.8333 7.00162 14.833 8.46191 14.833H8.53809ZM12.1689 5C11.8024 5 11.5049 4.7012 11.5049 4.33301C11.5051 3.96497 11.8025 3.66699 12.1689 3.66699H12.1748C12.5412 3.66699 12.8387 3.96497 12.8389 4.33301C12.8389 4.7012 12.5413 5 12.1748 5H12.1689ZM8.5 11C6.84315 11 5.5 9.65685 5.5 8C5.5 6.34315 6.84315 5 8.5 5C10.1569 5 11.5 6.34315 11.5 8C11.5 9.65685 10.1569 11 8.5 11Z" fill="#191919"/>
</svg>
