<svg width="17" height="16" viewBox="0 0 17 16" fill="none" xmlns="http://www.w3.org/2000/svg">
<path d="M8.53809 14.833C9.99839 14.833 11.1455 14.8333 12.041 14.7129C12.9588 14.5895 13.6876 14.3319 14.2598 13.7598C14.8319 13.1876 15.0895 12.4588 15.2129 11.541C15.3333 10.6455 15.333 9.49839 15.333 8.03809V7.96191C15.333 6.50161 15.3333 5.35455 15.2129 4.45898C15.0895 3.54121 14.8319 2.81237 14.2598 2.24023C13.6876 1.6681 12.9588 1.4105 12.041 1.28711C11.1455 1.16674 9.99839 1.16698 8.53809 1.16699H8.46191C7.00161 1.16698 5.85455 1.16674 4.95898 1.28711C4.04121 1.4105 3.31237 1.6681 2.74023 2.24023C2.1681 2.81237 1.9105 3.54121 1.78711 4.45898C1.66674 5.35455 1.66698 6.5016 1.66699 7.96191V8.03809C1.66698 9.4984 1.66674 10.6454 1.78711 11.541C1.9105 12.4588 2.1681 13.1876 2.74023 13.7598C3.31237 14.3319 4.04121 14.5895 4.95898 14.7129C5.85455 14.8333 7.00161 14.833 8.46191 14.833H8.53809ZM5.16699 5.5C4.70704 5.49979 4.33416 5.12695 4.33398 4.66699C4.33398 4.20688 4.70693 3.83322 5.16699 3.83301H5.17383C5.63377 3.83336 6.00684 4.20697 6.00684 4.66699C6.00666 5.12686 5.63366 5.49965 5.17383 5.5H5.16699ZM11.835 12C11.4668 12 11.168 11.7012 11.168 11.333L11.168 8.66699C11.168 7.93072 10.5712 7.33318 9.83496 7.33301C9.09858 7.33301 8.50195 7.93061 8.50195 8.66699V11.333C8.50195 11.7011 8.203 11.9998 7.83496 12C7.46677 12 7.16797 11.7012 7.16797 11.333L7.16797 6.66699C7.16797 6.2988 7.46677 6 7.83496 6C8.10495 6.00013 8.33769 6.16072 8.44238 6.3916C8.84761 6.14309 9.32477 6 9.83496 6C11.3076 6.00018 12.502 7.19434 12.502 8.66699L12.502 11.333C12.502 11.7011 12.203 11.9998 11.835 12ZM5.16797 12C4.79987 11.9999 4.50195 11.7011 4.50195 11.333L4.50195 7C4.50195 6.63188 4.79987 6.33311 5.16797 6.33301C5.53607 6.33311 5.83496 6.63188 5.83496 7L5.83496 11.333C5.83496 11.7011 5.53607 11.9999 5.16797 12Z" fill="#191919"/>
</svg>
