<svg width="12" height="12" viewBox="0 0 12 12" fill="none" xmlns="http://www.w3.org/2000/svg">
<path fill-rule="evenodd" clip-rule="evenodd" d="M6 1C6.27614 1 6.5 1.22386 6.5 1.5V3C6.5 3.27614 6.27614 3.5 6 3.5C5.72386 3.5 5.5 3.27614 5.5 3V1.5C5.5 1.22386 5.72386 1 6 1Z" fill="#2B2B2B"/>
<path opacity="0.4" fill-rule="evenodd" clip-rule="evenodd" d="M6 8.5C6.27614 8.5 6.5 8.72386 6.5 9V10.5C6.5 10.7761 6.27614 11 6 11C5.72386 11 5.5 10.7761 5.5 10.5V9C5.5 8.72386 5.72386 8.5 6 8.5Z" fill="#2B2B2B"/>
<path opacity="0.4" fill-rule="evenodd" clip-rule="evenodd" d="M8.5 6C8.5 5.72386 8.72386 5.5 9 5.5L10.5 5.5C10.7761 5.5 11 5.72386 11 6C11 6.27614 10.7761 6.5 10.5 6.5H9C8.72386 6.5 8.5 6.27614 8.5 6Z" fill="#2B2B2B"/>
<path fill-rule="evenodd" clip-rule="evenodd" d="M1 6C1 5.72386 1.22386 5.5 1.5 5.5L3 5.5C3.27614 5.5 3.5 5.72386 3.5 6C3.5 6.27614 3.27614 6.5 3 6.5H1.5C1.22386 6.5 1 6.27614 1 6Z" fill="#2B2B2B"/>
<path opacity="0.4" fill-rule="evenodd" clip-rule="evenodd" d="M9.53531 2.46481C9.73057 2.66007 9.73057 2.97665 9.53531 3.17191L8.47465 4.23257C8.27939 4.42784 7.9628 4.42784 7.76754 4.23257C7.57228 4.03731 7.57228 3.72073 7.76754 3.52547L8.8282 2.46481C9.02346 2.26954 9.34005 2.26954 9.53531 2.46481Z" fill="#2B2B2B"/>
<path fill-rule="evenodd" clip-rule="evenodd" d="M4.23208 7.76754C4.42735 7.9628 4.42735 8.27939 4.23208 8.47465L3.17142 9.53531C2.97616 9.73057 2.65958 9.73057 2.46432 9.53531C2.26906 9.34005 2.26906 9.02346 2.46432 8.8282L3.52498 7.76754C3.72024 7.57228 4.03682 7.57228 4.23208 7.76754Z" fill="#2B2B2B"/>
<path opacity="0.4" fill-rule="evenodd" clip-rule="evenodd" d="M7.76754 7.76754C7.9628 7.57228 8.27939 7.57228 8.47465 7.76754L9.53531 8.8282C9.73057 9.02346 9.73057 9.34005 9.53531 9.53531C9.34005 9.73057 9.02346 9.73057 8.8282 9.53531L7.76754 8.47465C7.57228 8.27939 7.57228 7.9628 7.76754 7.76754Z" fill="#2B2B2B"/>
<path fill-rule="evenodd" clip-rule="evenodd" d="M2.46432 2.46481C2.65958 2.26954 2.97616 2.26954 3.17142 2.46481L4.23208 3.52547C4.42735 3.72073 4.42735 4.03731 4.23208 4.23257C4.03682 4.42784 3.72024 4.42784 3.52498 4.23257L2.46432 3.17191C2.26906 2.97665 2.26906 2.66007 2.46432 2.46481Z" fill="#2B2B2B"/>
</svg>
