<svg width="16" height="22" viewBox="0 0 16 22" fill="none" xmlns="http://www.w3.org/2000/svg">
<path fill-rule="evenodd" clip-rule="evenodd" d="M2.25 5.5C2.25 2.46243 4.71243 0 7.75 0C10.7876 0 13.25 2.46243 13.25 5.5V8.5C13.25 9.05229 12.8023 9.5 12.25 9.5C11.6977 9.5 11.25 9.05229 11.25 8.5V5.5C11.25 3.567 9.683 2 7.75 2C5.817 2 4.25 3.567 4.25 5.5V8.5C4.25 9.05229 3.80228 9.5 3.25 9.5C2.69772 9.5 2.25 9.05229 2.25 8.5V5.5Z" fill="#141B34"/>
<path d="M7.75 6C12.0302 6 15.5 9.46979 15.5 13.75C15.5 18.0302 12.0302 21.5 7.75 21.5C3.46979 21.5 0 18.0302 0 13.75C0 9.46979 3.46979 6 7.75 6ZM7.75 11.75C7.19772 11.75 6.75 12.1977 6.75 12.75V14.75C6.75 15.3023 7.19772 15.75 7.75 15.75C8.30229 15.75 8.75 15.3023 8.75 14.75V12.75C8.75 12.1977 8.30229 11.75 7.75 11.75Z" fill="#141B34"/>
</svg>
