<svg width="16" height="16" viewBox="0 0 16 16" fill="none" xmlns="http://www.w3.org/2000/svg">
<path d="M9.96874 8.26303C9.86775 8.68086 9.39048 8.97611 8.43593 9.56662C7.51316 10.1375 7.05177 10.4229 6.67995 10.3082C6.52623 10.2607 6.38617 10.1706 6.27321 10.0465C6 9.74638 6 9.1642 6 7.99984C6 6.83547 6 6.25329 6.27321 5.95314C6.38617 5.82904 6.52623 5.73896 6.67995 5.69152C7.05177 5.57679 7.51316 5.86222 8.43593 6.43306C9.39048 7.02356 9.86775 7.31881 9.96874 7.73665C10.0104 7.90911 10.0104 8.09056 9.96874 8.26303Z" stroke="#4A4A4A" stroke-width="1.25" stroke-linejoin="round"/>
<path d="M1.66663 7.99984C1.66663 5.01428 1.66663 3.52149 2.59412 2.594C3.52162 1.6665 5.0144 1.6665 7.99996 1.6665C10.9855 1.6665 12.4783 1.6665 13.4058 2.594C14.3333 3.52149 14.3333 5.01428 14.3333 7.99984C14.3333 10.9854 14.3333 12.4782 13.4058 13.4057C12.4783 14.3332 10.9855 14.3332 7.99996 14.3332C5.0144 14.3332 3.52162 14.3332 2.59412 13.4057C1.66663 12.4782 1.66663 10.9854 1.66663 7.99984Z" stroke="#4A4A4A" stroke-width="1.25"/>
</svg>
