<svg width="16" height="16" viewBox="0 0 16 16" fill="none" xmlns="http://www.w3.org/2000/svg">
<path d="M9.29374 4.22471C10.3824 4.84316 11.2378 5.32917 11.8473 5.77436C12.4609 6.22261 12.9147 6.69113 13.0773 7.30881C13.1965 7.76179 13.1965 8.23829 13.0773 8.69127C12.9147 9.30895 12.4609 9.77747 11.8473 10.2257C11.2378 10.6709 10.3824 11.1569 9.29378 11.7754L9.29376 11.7754C8.24217 12.3728 7.35539 12.8766 6.68219 13.1629C6.00357 13.4516 5.3849 13.5979 4.78361 13.4275C4.34172 13.3023 3.93965 13.0646 3.61575 12.7378C3.17617 12.2943 2.99971 11.6813 2.91623 10.9436C2.83336 10.2113 2.83337 9.25269 2.83337 8.03344V8.03344V7.96665V7.96664C2.83337 6.74739 2.83336 5.78876 2.91623 5.05647C2.99971 4.31877 3.17617 3.70578 3.61575 3.26228C3.93965 2.93549 4.34172 2.69782 4.78361 2.5726C5.3849 2.40221 6.00357 2.5485 6.68219 2.83714C7.35539 3.12348 8.24215 3.62727 9.29374 4.22471Z" fill="#141B34"/>
</svg>
