<svg width="13" height="14" viewBox="0 0 13 14" fill="none" xmlns="http://www.w3.org/2000/svg">
<path d="M0.071267 0.854086C0.182391 0.636754 0.405909 0.5 0.650002 0.5L3.9 0.5C4.10872 0.5 4.30474 0.600228 4.42694 0.769431L7.52362 5.05714L11.8904 0.690381C12.1442 0.43654 12.5558 0.43654 12.8096 0.690381C13.0635 0.944221 13.0635 1.35578 12.8096 1.60962L8.29459 6.12464L12.8769 12.4694C13.0199 12.6673 13.0399 12.9286 12.9287 13.1459C12.8176 13.3632 12.5941 13.5 12.35 13.5H9.1C8.89128 13.5 8.69526 13.3998 8.57306 13.2306L5.47638 8.94286L1.10962 13.3096C0.855781 13.5635 0.444224 13.5635 0.190383 13.3096C-0.0634575 13.0558 -0.0634575 12.6442 0.190383 12.3904L4.70541 7.87536L0.123061 1.53057C-0.0198535 1.33269 -0.0398572 1.07142 0.071267 0.854086Z" fill="#141B34"/>
</svg>
