<svg width="117" height="18" viewBox="0 0 117 18" fill="none" xmlns="http://www.w3.org/2000/svg">
<path d="M5.44878 9.26396C6.12078 9.26396 6.63278 9.11196 6.98478 8.80796C7.35278 8.48796 7.53678 8.00796 7.53678 7.36796C7.53678 6.75996 7.34478 6.29596 6.96078 5.97596C6.59278 5.63996 6.04878 5.47196 5.32878 5.47196C5.07278 5.47196 4.85678 5.47996 4.68078 5.49596C4.52078 5.49596 4.35278 5.51196 4.17678 5.54396V9.26396H5.44878ZM4.20078 16.968C4.02478 17.016 3.74478 17.064 3.36078 17.112C2.99278 17.16 2.62478 17.184 2.25678 17.184C1.88878 17.184 1.56078 17.152 1.27278 17.088C1.00078 17.04 0.768781 16.944 0.576781 16.8C0.384781 16.656 0.240781 16.456 0.144781 16.2C0.0487807 15.944 0.000780761 15.608 0.000780761 15.192V3.88796C0.000780761 3.55196 0.0887808 3.29596 0.264781 3.11996C0.456781 2.92796 0.712781 2.77596 1.03278 2.66396C1.57678 2.47196 2.19278 2.33596 2.88078 2.25596C3.58478 2.15996 4.28878 2.11196 4.99278 2.11196C7.20078 2.11196 8.88878 2.58396 10.0568 3.52796C11.2248 4.47196 11.8088 5.75196 11.8088 7.36796C11.8088 8.15196 11.6808 8.86396 11.4248 9.50396C11.1848 10.128 10.8168 10.672 10.3208 11.136C9.84078 11.584 9.22478 11.936 8.47278 12.192C7.73678 12.432 6.88078 12.552 5.90478 12.552H4.20078V16.968ZM16.7653 17.04C16.6053 17.088 16.3493 17.136 15.9973 17.184C15.6613 17.232 15.3093 17.256 14.9413 17.256C14.5893 17.256 14.2693 17.232 13.9813 17.184C13.7093 17.136 13.4773 17.04 13.2853 16.896C13.0933 16.752 12.9413 16.56 12.8293 16.32C12.7333 16.064 12.6853 15.736 12.6853 15.336V8.13596C12.6853 7.76796 12.7493 7.45596 12.8773 7.19996C13.0213 6.92796 13.2213 6.68796 13.4773 6.47996C13.7333 6.27196 14.0453 6.08796 14.4133 5.92796C14.7973 5.75196 15.2053 5.59996 15.6373 5.47196C16.0693 5.34396 16.5173 5.24796 16.9813 5.18396C17.4453 5.10396 17.9093 5.06396 18.3733 5.06396C19.1413 5.06396 19.7493 5.21596 20.1973 5.51996C20.6453 5.80796 20.8693 6.28796 20.8693 6.95996C20.8693 7.18396 20.8373 7.40796 20.7733 7.63196C20.7093 7.83996 20.6293 8.03196 20.5333 8.20796C20.1973 8.20796 19.8533 8.22396 19.5013 8.25596C19.1493 8.28796 18.8053 8.33596 18.4693 8.39996C18.1333 8.46396 17.8133 8.53596 17.5093 8.61596C17.2213 8.67996 16.9733 8.75996 16.7653 8.85596V17.04ZM21.9765 2.15996C21.9765 1.55196 22.1765 1.03996 22.5765 0.623963C22.9925 0.207964 23.5365 -3.57628e-05 24.2085 -3.57628e-05C24.8805 -3.57628e-05 25.4165 0.207964 25.8165 0.623963C26.2325 1.03996 26.4405 1.55196 26.4405 2.15996C26.4405 2.76796 26.2325 3.27996 25.8165 3.69596C25.4165 4.11196 24.8805 4.31996 24.2085 4.31996C23.5365 4.31996 22.9925 4.11196 22.5765 3.69596C22.1765 3.27996 21.9765 2.76796 21.9765 2.15996ZM26.2485 17.04C26.0725 17.072 25.8085 17.112 25.4565 17.16C25.1205 17.224 24.7765 17.256 24.4245 17.256C24.0725 17.256 23.7525 17.232 23.4645 17.184C23.1925 17.136 22.9605 17.04 22.7685 16.896C22.5765 16.752 22.4245 16.56 22.3125 16.32C22.2165 16.064 22.1685 15.736 22.1685 15.336V5.56796C22.3445 5.53596 22.6005 5.49596 22.9365 5.44796C23.2885 5.38396 23.6405 5.35196 23.9925 5.35196C24.3445 5.35196 24.6565 5.37596 24.9285 5.42396C25.2165 5.47196 25.4565 5.56796 25.6485 5.71196C25.8405 5.85596 25.9845 6.05596 26.0805 6.31196C26.1925 6.55196 26.2485 6.87196 26.2485 7.27196V17.04ZM28.774 17.064C28.518 16.84 28.31 16.576 28.15 16.272C28.006 15.968 27.934 15.624 27.934 15.24C27.934 14.92 28.006 14.608 28.15 14.304C28.31 13.984 28.502 13.688 28.726 13.416L32.854 8.56796H28.438C28.342 8.39196 28.246 8.16796 28.15 7.89596C28.07 7.62396 28.03 7.32796 28.03 7.00796C28.03 6.44796 28.15 6.04796 28.39 5.80796C28.646 5.55196 28.982 5.42396 29.398 5.42396H36.958C37.214 5.64796 37.414 5.91196 37.558 6.21596C37.718 6.51996 37.798 6.86396 37.798 7.24796C37.798 7.56796 37.718 7.88796 37.558 8.20796C37.414 8.51196 37.23 8.79996 37.006 9.07196L32.974 13.92H37.678C37.774 14.096 37.862 14.32 37.942 14.592C38.038 14.864 38.086 15.16 38.086 15.48C38.086 16.04 37.958 16.448 37.702 16.704C37.462 16.944 37.134 17.064 36.718 17.064H28.774ZM45.3743 17.448C44.4303 17.448 43.5503 17.32 42.7343 17.064C41.9343 16.792 41.2303 16.392 40.6223 15.864C40.0303 15.336 39.5583 14.672 39.2063 13.872C38.8703 13.072 38.7023 12.136 38.7023 11.064C38.7023 10.008 38.8703 9.10396 39.2063 8.35196C39.5583 7.58396 40.0143 6.95996 40.5743 6.47996C41.1343 5.98396 41.7743 5.62396 42.4943 5.39996C43.2143 5.15996 43.9503 5.03996 44.7023 5.03996C45.5503 5.03996 46.3183 5.16796 47.0063 5.42396C47.7103 5.67996 48.3103 6.03196 48.8063 6.47996C49.3183 6.92796 49.7103 7.46396 49.9823 8.08796C50.2703 8.71196 50.4143 9.39196 50.4143 10.128C50.4143 10.672 50.2623 11.088 49.9583 11.376C49.6543 11.664 49.2303 11.848 48.6863 11.928L42.7583 12.816C42.9343 13.344 43.2943 13.744 43.8383 14.016C44.3823 14.272 45.0063 14.4 45.7103 14.4C46.3663 14.4 46.9823 14.32 47.5583 14.16C48.1503 13.984 48.6303 13.784 48.9983 13.56C49.2543 13.72 49.4703 13.944 49.6463 14.232C49.8223 14.52 49.9103 14.824 49.9103 15.144C49.9103 15.864 49.5743 16.4 48.9023 16.752C48.3903 17.024 47.8143 17.208 47.1743 17.304C46.5343 17.4 45.9343 17.448 45.3743 17.448ZM44.7023 8.01596C44.3183 8.01596 43.9823 8.07996 43.6943 8.20796C43.4223 8.33596 43.1983 8.50396 43.0223 8.71196C42.8463 8.90396 42.7103 9.12796 42.6143 9.38396C42.5343 9.62396 42.4863 9.87196 42.4703 10.128L46.5743 9.45596C46.5263 9.13596 46.3503 8.81596 46.0463 8.49596C45.7423 8.17596 45.2943 8.01596 44.7023 8.01596ZM60.7108 13.944C60.8868 13.976 61.1028 14.008 61.3588 14.04C61.6148 14.056 61.8548 14.064 62.0788 14.064C62.6228 14.064 63.1188 13.984 63.5668 13.824C64.0308 13.664 64.4228 13.416 64.7428 13.08C65.0788 12.744 65.3348 12.312 65.5108 11.784C65.7028 11.24 65.7988 10.592 65.7988 9.83996C65.7988 8.39996 65.4628 7.31996 64.7908 6.59996C64.1188 5.86396 63.2228 5.49596 62.1028 5.49596C61.8788 5.49596 61.6468 5.50396 61.4068 5.51996C61.1828 5.53596 60.9508 5.55996 60.7108 5.59196V13.944ZM62.0548 17.448C61.7828 17.448 61.4708 17.44 61.1188 17.424C60.7668 17.408 60.3988 17.376 60.0148 17.328C59.6468 17.28 59.2708 17.216 58.8868 17.136C58.5188 17.072 58.1748 16.976 57.8548 16.848C56.9748 16.512 56.5348 15.928 56.5348 15.096V3.88796C56.5348 3.55196 56.6228 3.29596 56.7988 3.11996C56.9908 2.92796 57.2468 2.77596 57.5668 2.66396C58.2548 2.43996 58.9828 2.29596 59.7508 2.23196C60.5188 2.15196 61.2068 2.11196 61.8148 2.11196C63.0628 2.11196 64.1908 2.26396 65.1988 2.56796C66.2228 2.87196 67.0948 3.34396 67.8148 3.98396C68.5508 4.60796 69.1188 5.39996 69.5188 6.35996C69.9188 7.31996 70.1188 8.45596 70.1188 9.76796C70.1188 11.048 69.9268 12.168 69.5428 13.128C69.1588 14.072 68.6068 14.872 67.8868 15.528C67.1828 16.168 66.3348 16.648 65.3428 16.968C64.3508 17.288 63.2548 17.448 62.0548 17.448ZM77.8952 17.448C76.9512 17.448 76.0712 17.32 75.2552 17.064C74.4552 16.792 73.7512 16.392 73.1432 15.864C72.5512 15.336 72.0792 14.672 71.7272 13.872C71.3912 13.072 71.2232 12.136 71.2232 11.064C71.2232 10.008 71.3912 9.10396 71.7272 8.35196C72.0792 7.58396 72.5352 6.95996 73.0952 6.47996C73.6552 5.98396 74.2952 5.62396 75.0152 5.39996C75.7352 5.15996 76.4712 5.03996 77.2232 5.03996C78.0712 5.03996 78.8392 5.16796 79.5272 5.42396C80.2312 5.67996 80.8312 6.03196 81.3272 6.47996C81.8392 6.92796 82.2312 7.46396 82.5032 8.08796C82.7912 8.71196 82.9352 9.39196 82.9352 10.128C82.9352 10.672 82.7832 11.088 82.4792 11.376C82.1752 11.664 81.7512 11.848 81.2072 11.928L75.2792 12.816C75.4552 13.344 75.8152 13.744 76.3592 14.016C76.9032 14.272 77.5272 14.4 78.2312 14.4C78.8872 14.4 79.5032 14.32 80.0792 14.16C80.6712 13.984 81.1512 13.784 81.5192 13.56C81.7752 13.72 81.9912 13.944 82.1672 14.232C82.3432 14.52 82.4312 14.824 82.4312 15.144C82.4312 15.864 82.0952 16.4 81.4232 16.752C80.9112 17.024 80.3352 17.208 79.6952 17.304C79.0552 17.4 78.4552 17.448 77.8952 17.448ZM77.2232 8.01596C76.8392 8.01596 76.5032 8.07996 76.2152 8.20796C75.9432 8.33596 75.7192 8.50396 75.5432 8.71196C75.3672 8.90396 75.2312 9.12796 75.1352 9.38396C75.0552 9.62396 75.0072 9.87196 74.9912 10.128L79.0952 9.45596C79.0472 9.13596 78.8712 8.81596 78.5672 8.49596C78.2632 8.17596 77.8152 8.01596 77.2232 8.01596ZM88.4991 13.056C88.4991 13.472 88.6271 13.768 88.8831 13.944C89.1551 14.12 89.5311 14.208 90.0111 14.208C90.2511 14.208 90.4991 14.192 90.7551 14.16C91.0111 14.112 91.2351 14.056 91.4271 13.992C91.5711 14.168 91.6911 14.368 91.7871 14.592C91.8991 14.8 91.9551 15.056 91.9551 15.36C91.9551 15.968 91.7231 16.464 91.2591 16.848C90.8111 17.232 90.0111 17.424 88.8591 17.424C87.4511 17.424 86.3631 17.104 85.5951 16.464C84.8431 15.824 84.4671 14.784 84.4671 13.344V3.07196C84.6431 3.02396 84.8911 2.97596 85.2111 2.92796C85.5471 2.86396 85.8991 2.83196 86.2671 2.83196C86.9711 2.83196 87.5151 2.95996 87.8991 3.21596C88.2991 3.45596 88.4991 3.97596 88.4991 4.77596V6.31196H91.6431C91.7391 6.48796 91.8271 6.71196 91.9071 6.98396C92.0031 7.23996 92.0511 7.52796 92.0511 7.84796C92.0511 8.40796 91.9231 8.81596 91.6671 9.07196C91.4271 9.31196 91.0991 9.43196 90.6831 9.43196H88.4991V13.056ZM98.5405 14.472C98.8125 14.472 99.1085 14.448 99.4285 14.4C99.7645 14.336 100.012 14.256 100.172 14.16V12.24L98.4445 12.384C97.9965 12.416 97.6285 12.512 97.3405 12.672C97.0525 12.832 96.9085 13.072 96.9085 13.392C96.9085 13.712 97.0285 13.976 97.2685 14.184C97.5245 14.376 97.9485 14.472 98.5405 14.472ZM98.3485 5.03996C99.2125 5.03996 99.9965 5.12796 100.7 5.30396C101.42 5.47996 102.028 5.75196 102.524 6.11996C103.036 6.47196 103.428 6.92796 103.7 7.48796C103.972 8.03196 104.108 8.67996 104.108 9.43196V14.808C104.108 15.224 103.988 15.568 103.748 15.84C103.524 16.096 103.252 16.32 102.932 16.512C101.892 17.136 100.428 17.448 98.5405 17.448C97.6925 17.448 96.9245 17.368 96.2365 17.208C95.5645 17.048 94.9805 16.808 94.4845 16.488C94.0045 16.168 93.6285 15.76 93.3565 15.264C93.1005 14.768 92.9725 14.192 92.9725 13.536C92.9725 12.432 93.3005 11.584 93.9565 10.992C94.6125 10.4 95.6285 10.032 97.0045 9.88796L100.148 9.55196V9.38396C100.148 8.91996 99.9405 8.59196 99.5245 8.39996C99.1245 8.19196 98.5405 8.08796 97.7725 8.08796C97.1645 8.08796 96.5725 8.15196 95.9965 8.27996C95.4205 8.40796 94.9005 8.56796 94.4365 8.75996C94.2285 8.61596 94.0525 8.39996 93.9085 8.11196C93.7645 7.80796 93.6925 7.49596 93.6925 7.17596C93.6925 6.75996 93.7885 6.43196 93.9805 6.19196C94.1885 5.93596 94.5005 5.71996 94.9165 5.54396C95.3805 5.36796 95.9245 5.23996 96.5485 5.15996C97.1885 5.07996 97.7885 5.03996 98.3485 5.03996ZM106.027 2.15996C106.027 1.55196 106.227 1.03996 106.627 0.623963C107.043 0.207964 107.587 -3.57628e-05 108.259 -3.57628e-05C108.931 -3.57628e-05 109.467 0.207964 109.867 0.623963C110.283 1.03996 110.491 1.55196 110.491 2.15996C110.491 2.76796 110.283 3.27996 109.867 3.69596C109.467 4.11196 108.931 4.31996 108.259 4.31996C107.587 4.31996 107.043 4.11196 106.627 3.69596C106.227 3.27996 106.027 2.76796 106.027 2.15996ZM110.299 17.04C110.123 17.072 109.859 17.112 109.507 17.16C109.171 17.224 108.827 17.256 108.475 17.256C108.123 17.256 107.803 17.232 107.515 17.184C107.243 17.136 107.011 17.04 106.819 16.896C106.627 16.752 106.475 16.56 106.363 16.32C106.267 16.064 106.219 15.736 106.219 15.336V5.56796C106.395 5.53596 106.651 5.49596 106.987 5.44796C107.339 5.38396 107.691 5.35196 108.043 5.35196C108.395 5.35196 108.707 5.37596 108.979 5.42396C109.267 5.47196 109.507 5.56796 109.699 5.71196C109.891 5.85596 110.035 6.05596 110.131 6.31196C110.243 6.55196 110.299 6.87196 110.299 7.27196V17.04ZM116.569 17.04C116.393 17.072 116.129 17.112 115.777 17.16C115.441 17.224 115.097 17.256 114.745 17.256C114.393 17.256 114.073 17.232 113.785 17.184C113.513 17.136 113.281 17.04 113.089 16.896C112.897 16.752 112.745 16.56 112.633 16.32C112.537 16.064 112.489 15.736 112.489 15.336V1.41596C112.665 1.38396 112.921 1.34396 113.257 1.29596C113.609 1.23196 113.961 1.19996 114.313 1.19996C114.665 1.19996 114.977 1.22396 115.249 1.27196C115.537 1.31996 115.777 1.41596 115.969 1.55996C116.161 1.70396 116.305 1.90396 116.401 2.15996C116.513 2.39996 116.569 2.71996 116.569 3.11996V17.04Z" fill="url(#paint0_linear_861_559)"/>
<defs>
<linearGradient id="paint0_linear_861_559" x1="-3.33203" y1="11.064" x2="116.668" y2="11.564" gradientUnits="userSpaceOnUse">
<stop stop-color="#F1D474"/>
<stop offset="0.303953" stop-color="white"/>
<stop offset="0.782261" stop-color="white"/>
<stop offset="1" stop-color="#F1D474"/>
</linearGradient>
</defs>
</svg>
